<?xml version="1.0" encoding="UTF-8"?>
<svg version="1.1" xmlns="http://www.w3.org/2000/svg" width="1007" height="870">
<path d="M0 0 C0.79083984 0.00974854 1.58167969 0.01949707 2.39648438 0.02954102 C12.80578748 0.34494204 18.87291497 3.65563255 26.359375 10.8125 C29.51825205 13.81075618 32.80265821 16.62361165 36.125 19.4375 C40.24238269 22.94310047 44.31439905 26.4828508 48.3125 30.125 C52.44927804 33.87899176 56.73221231 37.40896456 61.07421875 40.921875 C65.30836483 44.41328355 69.43334497 48.02506827 73.56811523 51.63305664 C77.28397878 54.86697993 81.04115222 58.03053715 84.875 61.125 C89.54265023 64.90192999 93.95832417 68.90340065 98.375 72.96875 C101.06237634 75.38128104 103.81465444 77.6700621 106.625 79.9375 C110.40960334 82.99098679 114.04707537 86.14418301 117.625 89.4375 C122.0948512 93.55128909 126.71544893 97.40837297 131.44140625 101.22265625 C134.07208557 103.39382827 136.60442424 105.63991357 139.125 107.9375 C143.34513944 111.77941939 147.70527184 115.39865221 152.140625 118.98828125 C156.12755494 122.26027742 160.02823998 125.62789755 163.93261719 128.99755859 C167.44699543 132.02292138 171.00602353 134.9744968 174.625 137.875 C179.608162 141.91282686 184.2626115 146.24282655 188.92919922 150.63598633 C193.26805056 154.69957209 197.77255415 158.47938352 202.4140625 162.1953125 C205.41404627 164.67656709 208.27650408 167.28617605 211.125 169.9375 C215.73496248 174.22713052 220.50283795 178.24161347 225.41015625 182.19140625 C228.23173495 184.5258059 230.93090712 186.95740598 233.625 189.4375 C238.0948512 193.55128909 242.71544893 197.40837297 247.44140625 201.22265625 C250.07208557 203.39382827 252.60442424 205.63991357 255.125 207.9375 C258.54239372 211.05208668 262.0302235 214.0293662 265.625 216.9375 C270.08776213 220.54782442 274.35219533 224.32177929 278.59375 228.1875 C281.2134481 230.51612053 283.9001531 232.73312947 286.625 234.9375 C290.2197765 237.8456338 293.70760628 240.82291332 297.125 243.9375 C300.44489486 246.96032421 303.82264112 249.86262161 307.3125 252.6875 C312.45194428 256.84834769 317.44826152 261.15484489 322.43408203 265.49682617 C326.49283358 269.02910084 330.57390109 272.53177037 334.6875 276 C340.94214647 281.27457639 347.15606377 286.59552165 353.36328125 291.92578125 C355.1054974 293.42076495 356.84932664 294.91384266 358.59375 296.40625 C365.9866847 302.73219539 373.36767843 309.0716691 380.69921875 315.46875 C382.7431066 317.25005308 384.80118335 318.99446908 386.89453125 320.71875 C392.91188026 325.74817604 397.7015381 331.51077097 399.125 339.4375 C400.37561697 355.94564397 400.37561697 355.94564397 395.79296875 361.7734375 C382.28486221 375.24990913 363.02126928 380.40116132 344.3125 380.75 C330.6357333 380.69367838 323.65091196 374.85345885 313.93945312 366.06640625 C311.04706496 363.46979513 308.08442163 360.95707489 305.125 358.4375 C303.95796544 357.43792936 302.79129926 356.43792848 301.625 355.4375 C300.75875 354.695 300.75875 354.695 299.875 353.9375 C293.45833333 348.4375 287.04166667 342.9375 280.625 337.4375 C280.04758057 336.94258057 279.47016113 336.44766113 278.87524414 335.93774414 C277.70771772 334.93698394 276.5402373 333.93617008 275.37280273 332.93530273 C272.46966371 330.44649324 269.56575051 327.95859909 266.66015625 325.47265625 C260.60949263 320.2940376 254.57496736 315.09793587 248.5625 309.875 C243.39551618 305.38791742 238.19756216 300.94072848 232.96630859 296.52880859 C226.05888482 290.70126298 219.21046205 284.80488247 212.35449219 278.91699219 C206.12796761 273.57063895 199.8951061 268.2327217 193.625 262.9375 C187.95209249 258.14662366 182.30874576 253.32212506 176.67578125 248.484375 C174.28111701 246.4278355 171.88243831 244.37612686 169.48046875 242.328125 C164.24435532 237.85978669 159.02932668 233.38332096 153.9375 228.75 C150.6241692 225.73935521 147.23558071 222.87184822 143.75 220.0625 C139.19639288 216.38113311 134.88917484 212.50975527 130.60595703 208.52392578 C127.37323796 205.53337359 124.05812334 202.69978315 120.625 199.9375 C116.64868119 196.73816303 112.8585424 193.4114272 109.125 189.9375 C104.5911272 185.72348609 99.9125909 181.75524568 95.09375 177.87109375 C89.63394979 173.39549437 84.34573691 168.71915266 79.02148438 164.08398438 C76.04644782 161.50112566 73.05552964 158.93696602 70.0625 156.375 C69.48838379 155.88338379 68.91426758 155.39176758 68.32275391 154.88525391 C66.59046992 153.40231751 64.8578057 151.91982673 63.125 150.4375 C55.91795768 144.27224358 48.72278427 138.09454382 41.5625 131.875 C32.32952782 123.86260147 23.09116618 115.8456303 13.46875 108.30078125 C11.85759508 107.01991309 10.27523961 105.70223655 8.71875 104.35546875 C7.9453125 103.70191406 7.171875 103.04835938 6.375 102.375 C5.69953125 101.78589844 5.0240625 101.19679688 4.328125 100.58984375 C1.17750789 98.94191459 -0.5200911 99.40288938 -3.875 100.4375 C-6.34159885 102.15977348 -6.34159885 102.15977348 -8.5625 104.4375 C-12.02590758 107.71971286 -15.52251058 110.83265998 -19.25 113.8125 C-23.26324111 117.0570076 -27.09935954 120.4247668 -30.875 123.9375 C-35.507511 128.2474377 -40.2962195 132.2881094 -45.2265625 136.2578125 C-47.84775119 138.41507399 -50.36654281 140.65061 -52.875 142.9375 C-56.24960948 146.01403672 -59.69315864 148.94868217 -63.25 151.8125 C-67.26326816 155.05702947 -71.09910867 158.42501465 -74.875 161.9375 C-79.45089066 166.18953128 -84.16128484 170.20414678 -89.02734375 174.125 C-92.18121015 176.68616449 -95.28103609 179.30462948 -98.375 181.9375 C-102.39990868 185.36116275 -106.4552746 188.73732739 -110.5625 192.0625 C-115.01547457 195.68701419 -119.30165568 199.4594672 -123.546875 203.32421875 C-125.61432309 205.20087885 -127.70386604 207.04494573 -129.8125 208.875 C-132.98721597 211.63534541 -136.09037436 214.46542558 -139.1875 217.3125 C-143.62399992 221.35951296 -148.18771348 225.18633302 -152.859375 228.95703125 C-157.08759234 232.43490432 -161.20104335 236.03954085 -165.32495117 239.63989258 C-168.97239657 242.81547377 -172.66254482 245.91308819 -176.4375 248.9375 C-182.08923999 253.50950459 -187.35426267 258.45893776 -192.65234375 263.4296875 C-195.69637013 266.28296778 -198.80466877 269.04938009 -201.96484375 271.7734375 C-204.23704511 273.75290126 -206.45959872 275.7833317 -208.6875 277.8125 C-213.93602173 282.54333749 -219.3760252 287.00239721 -224.875 291.4375 C-234.63799876 299.32778752 -244.33670183 307.27660455 -253.875 315.4375 C-254.71345459 316.15437988 -254.71345459 316.15437988 -255.56884766 316.88574219 C-259.08549705 319.89378117 -262.59798462 322.90664302 -266.10888672 325.92138672 C-268.4473829 327.92885994 -270.78740605 329.93454764 -273.12768555 331.93994141 C-274.29218656 332.93799215 -275.45641208 333.93636442 -276.62036133 334.93505859 C-279.55663772 337.45397746 -282.49693691 339.96790572 -285.4453125 342.47265625 C-291.08597036 347.27185159 -296.67536185 352.10911574 -302.125 357.125 C-302.61758301 357.57721924 -303.11016602 358.02943848 -303.61767578 358.49536133 C-305.90653917 360.60247779 -308.17596085 362.72599774 -310.421875 364.87890625 C-319.73123089 373.63978098 -329.8733044 380.20657024 -342.875 381.4375 C-359.60079745 380.74498632 -379.71063962 375.55667113 -391.80859375 363.75 C-397.73550786 357.11723411 -399.11527952 350.27063281 -398.875 341.4375 C-397.03657478 325.29755913 -379.10198211 313.98909569 -367.40234375 304.5703125 C-365.19037324 302.70364187 -363.22826115 300.79353303 -361.25 298.6875 C-357.40419933 294.70745167 -353.10678494 291.49276089 -348.6875 288.1875 C-342.60807696 283.63784052 -336.91588345 278.89715811 -331.40527344 273.67675781 C-327.34510138 269.83550412 -323.11229074 266.28318339 -318.75390625 262.78125 C-314.79191535 259.55574859 -310.93395573 256.21458978 -307.06665039 252.87670898 C-303.55243695 249.85168866 -299.9937057 246.90028619 -296.375 244 C-291.39263685 239.96282045 -286.73899953 235.63348547 -282.07299805 231.24121094 C-277.71107725 227.15628498 -273.18498738 223.34974465 -268.51953125 219.61328125 C-265.71660752 217.307183 -263.04496725 214.89598469 -260.375 212.4375 C-255.9051488 208.32371091 -251.28455107 204.46662703 -246.55859375 200.65234375 C-243.92791443 198.48117173 -241.39557576 196.23508643 -238.875 193.9375 C-235.55510514 190.91467579 -232.17735888 188.01237839 -228.6875 185.1875 C-219.76956738 177.96220615 -211.1159605 170.40900939 -202.625 162.6875 C-199.39626378 159.75565907 -196.09240115 156.97492089 -192.6875 154.25 C-188.05063388 150.50509115 -183.70237667 146.52927324 -179.375 142.4375 C-174.27796871 137.62225269 -169.09682702 133.02661686 -163.6171875 128.64453125 C-160.49019848 126.12779507 -157.43079754 123.5397585 -154.375 120.9375 C-150.37270408 117.53201703 -146.3385031 114.1772525 -142.25 110.875 C-137.48623145 106.99880404 -132.94099277 102.92254767 -128.41796875 98.76953125 C-119.03407246 90.16402267 -109.24538366 81.97790012 -99.375 73.9375 C-93.13648744 68.85460192 -87.00032133 63.65568875 -80.875 58.4375 C-80.28750977 57.93782715 -79.70001953 57.4381543 -79.09472656 56.92333984 C-72.35412239 51.18708205 -65.66560938 45.40881867 -59.11328125 39.45703125 C-56.43255548 37.03829613 -53.7035773 34.67949147 -50.95703125 32.3359375 C-49.1154827 30.6567769 -47.39853374 28.92045803 -45.6640625 27.1328125 C-41.87486641 23.31995596 -37.75224709 20.12986914 -33.4375 16.9375 C-29.06309272 13.68341603 -24.83517897 10.43407027 -20.83984375 6.71875 C-14.53688489 1.15886378 -8.2449237 -0.11392407 0 0 Z " fill="#1F8541" transform="translate(503.875,100.5625)"/>
<path d="M0 0 C0.93847212 -0.00350607 1.87694424 -0.00701215 2.8438549 -0.01062447 C5.98228317 -0.01991357 9.12052486 -0.01502154 12.25896072 -0.01015663 C14.53435455 -0.01389413 16.8097471 -0.01849606 19.08513761 -0.02388728 C25.33338895 -0.03612017 31.58158675 -0.03585646 37.82984734 -0.03349853 C43.87787608 -0.03313236 49.92588664 -0.04211497 55.9739075 -0.0507243 C69.87027441 -0.07005343 83.76662655 -0.07569211 97.66300532 -0.07683842 C108.39542483 -0.07775794 119.12783856 -0.0818769 129.8602562 -0.08823967 C132.95095991 -0.09003479 136.04166364 -0.09181442 139.13236737 -0.09358943 C140.2849442 -0.09425257 140.2849442 -0.09425257 141.4608054 -0.09492911 C163.07030526 -0.1072353 184.67980312 -0.11513046 206.28930664 -0.11424255 C207.10382352 -0.1142114 207.9183404 -0.11418024 208.75753961 -0.11414814 C212.88573386 -0.11398193 217.01392811 -0.11378384 221.14212236 -0.11357872 C221.96197843 -0.11353883 222.7818345 -0.11349894 223.6265347 -0.11345784 C225.28448295 -0.11337697 226.94243121 -0.11329337 228.60037947 -0.11320706 C254.39424957 -0.1119816 280.18806709 -0.12699465 305.98192215 -0.15435219 C334.96954896 -0.18508453 363.95714122 -0.202284 392.94478536 -0.20042574 C396.0367465 -0.20027649 399.12870764 -0.20017907 402.22066879 -0.20011711 C402.98197286 -0.2000938 403.74327692 -0.20007049 404.5276508 -0.20004648 C416.76958102 -0.19998498 429.01146552 -0.21274699 441.25338215 -0.22998164 C453.56024849 -0.2469492 465.86704807 -0.24890316 478.17391965 -0.235763 C484.83876494 -0.22903021 491.50348029 -0.22913214 498.1683197 -0.2464695 C504.27267059 -0.26218548 510.37672469 -0.25935119 516.48106828 -0.24190123 C518.68626628 -0.23882816 520.89148635 -0.24247523 523.09665832 -0.25362138 C539.55437759 -0.3312809 553.79077802 0.48437273 566.46043777 12.25726891 C576.18981318 22.40335871 578.82036716 33.35837106 578.58543777 46.97992516 C578.1034784 57.95469166 571.80704538 66.1014627 564.12059402 73.44476891 C551.50432933 84.21939765 536.73336018 84.5604742 520.95994949 84.59540367 C519.21777754 84.60631524 517.47561022 84.61798868 515.73344803 84.63036156 C511.02705127 84.66069878 506.32070309 84.67784102 501.61422873 84.69057775 C498.67028931 84.69868891 495.72636353 84.70886982 492.78243256 84.71959305 C483.56031354 84.75225187 474.33822811 84.77617972 465.11605918 84.78840691 C454.48899047 84.80268387 443.86258332 84.84665431 433.23573387 84.9159084 C425.00446816 84.96769484 416.77339078 84.99257995 408.54196465 84.99722904 C403.63207988 85.00062392 398.72286677 85.01543403 393.81315613 85.05850983 C389.19825719 85.09829842 384.58449816 85.1046503 379.96947861 85.08560944 C378.27960992 85.084345 376.58968246 85.09498532 374.89997864 85.11862373 C360.55803613 85.30776725 360.55803613 85.30776725 355.39479446 80.85600853 C354.33056956 79.68765381 353.29592143 78.49089138 352.30809402 77.25726891 C351.4908284 76.46320641 350.67356277 75.66914391 349.83153152 74.85101891 C349.12254715 74.16008141 348.41356277 73.46914391 347.68309402 72.75726891 C335.90708326 62.17513941 322.59604343 58.9267258 307.08592606 58.99847984 C306.12984451 58.9949752 305.17376297 58.99147057 304.18870926 58.98785973 C301.06436525 58.97914048 297.94025237 58.98485761 294.81590652 58.99164391 C292.62074618 58.99029422 290.42558612 58.98835116 288.23042679 58.98584557 C283.64284274 58.98290737 279.0553369 58.98714902 274.46776199 58.99652672 C268.61878143 59.00790685 262.76998476 59.00136247 256.92101097 58.98938179 C252.39111855 58.98211633 247.86126891 58.98447277 243.33137512 58.98963737 C241.17623624 58.99096164 239.02109335 58.98936956 236.86595917 58.98467827 C207.83639957 58.91070612 207.83639957 58.91070612 183.30809402 73.25726891 C182.3517461 74.47717728 181.43098113 75.72631384 180.55809402 77.00726891 C177.52666063 81.38600604 174.46217328 83.2728666 169.30809402 84.25726891 C166.93178463 84.35194822 164.55295551 84.38788876 162.17476273 84.39098167 C161.45561192 84.39324723 160.73646111 84.39551279 159.99551785 84.397847 C157.58520791 84.40417809 155.17495433 84.40335819 152.76463699 84.40253258 C151.03645124 84.40552473 149.30826615 84.40892739 147.58008194 84.41271019 C142.88351259 84.42155126 138.18696145 84.42388842 133.49038458 84.42452598 C130.55417281 84.42523671 127.61796568 84.42737154 124.68175507 84.43002319 C114.4321984 84.43927875 104.18265474 84.44335804 93.93309402 84.44257164 C84.39016038 84.44197161 74.8472834 84.45250828 65.30436409 84.4683153 C57.10461693 84.48141173 48.90488823 84.48675462 40.7051307 84.48611623 C35.81100418 84.48586175 30.91692796 84.48868495 26.02281189 84.49929428 C21.41486071 84.50901 16.80700754 84.50903069 12.19905281 84.50177765 C10.51328831 84.50073594 8.82751759 84.50306999 7.14176369 84.50913811 C-8.54213193 84.56190997 -22.59751848 83.28814175 -34.69190598 72.25726891 C-42.99228762 63.73255262 -47.13783444 53.47279389 -47.25440598 41.63226891 C-47.04886299 29.98741851 -42.98277043 20.19618724 -35.13721848 11.54242516 C-25.56383359 2.54161114 -12.70048151 -0.06083042 0 0 Z " fill="#1F8541" transform="translate(238.6919059753418,457.74273109436035)"/>
<path d="M0 0 C2.49355112 -0.00299741 4.98710179 -0.00640127 7.48065186 -0.01017761 C13.51339748 -0.01804984 19.54612772 -0.02122942 25.57887705 -0.02178999 C30.4858982 -0.02226781 35.39291616 -0.02433569 40.29993629 -0.02749062 C54.25062366 -0.03627606 68.20130338 -0.04091278 82.15199354 -0.04016014 C82.90121555 -0.04012019 83.65043757 -0.04008023 84.42236328 -0.04003906 C85.17251199 -0.03999818 85.92266069 -0.0399573 86.69554118 -0.03991518 C98.86545748 -0.0395083 111.03534291 -0.04909389 123.20525029 -0.06317743 C135.73878932 -0.07756614 148.27231332 -0.08444639 160.80586082 -0.08358365 C167.82768139 -0.08325276 174.8494695 -0.08595284 181.87128258 -0.0967617 C188.47140996 -0.10685775 195.07148068 -0.10650607 201.6716156 -0.09924507 C204.08661817 -0.09820239 206.50162507 -0.10054322 208.91662025 -0.10660553 C235.47848489 -0.1689423 251.2653008 3.50124824 271.4934082 21.12182617 C276.22868909 25.24497591 281.10333476 29.1933621 285.98168945 33.14526367 C329.1048062 68.07882709 329.1048062 68.07882709 330.54418945 76.39526367 C329.8980037 79.554394 329.59560972 80.31994669 326.98168945 82.14526367 C324.39401792 82.43661028 322.0477596 82.54246554 319.45979023 82.51440716 C318.29468521 82.51959946 318.29468521 82.51959946 317.10604271 82.52489665 C314.48166316 82.53288983 311.85782662 82.5193356 309.23347473 82.50602722 C307.34172568 82.50733445 305.44997715 82.50995933 303.55823153 82.51379472 C298.3430198 82.52052795 293.12799162 82.50846812 287.91280329 82.49346054 C282.29521654 82.48054521 276.67764075 82.48488643 271.06004333 82.48716736 C261.32159267 82.48874295 251.58320215 82.4793039 241.84476662 82.46245384 C227.76450798 82.4381071 213.68427853 82.43026301 199.60400113 82.42648987 C176.7615347 82.41991858 153.91910743 82.39996478 131.07666016 82.37158203 C108.88297696 82.34403719 86.68930233 82.32278221 64.49560547 82.31005859 C63.81172244 82.30966402 63.12783941 82.30926944 62.42323265 82.3088629 C55.55551441 82.3049074 48.6877961 82.30107995 41.82007774 82.29734632 C-15.79274055 82.26601316 -73.40552426 82.21306526 -131.01831055 82.14526367 C-132.40644947 79.60470753 -133.01556452 78.27762216 -133.0769043 75.32104492 C-131.54981907 70.73978925 -128.66029119 68.45293807 -125.08081055 65.33276367 C-124.39857422 64.71820313 -123.71633789 64.10364258 -123.01342773 63.47045898 C-121.02547916 61.68327539 -119.02293863 59.91368591 -117.01831055 58.14526367 C-115.26716656 56.56319566 -113.5169714 54.98007585 -111.76831055 53.39526367 C-110.98713867 52.69916992 -110.2059668 52.00307617 -109.40112305 51.28588867 C-107.71460221 49.7707847 -106.04420647 48.23764148 -104.38549805 46.69213867 C-98.8857272 41.58408939 -93.23022219 36.98686472 -87.1784668 32.55151367 C-83.71409615 29.91362453 -80.42755501 27.12630687 -77.14331055 24.27026367 C-51.70559223 2.27511188 -33.14412324 -0.00800164 0 0 Z " fill="#1F8541" transform="translate(405.018310546875,353.854736328125)"/>
<path d="M0 0 C1.02493813 -0.00282738 2.04987625 -0.00565475 3.10587311 -0.00856781 C8.51736195 -0.02345895 13.92882477 -0.03275513 19.34033203 -0.03710938 C24.90719902 -0.04261638 30.47382422 -0.06672006 36.04061508 -0.09508133 C40.34729715 -0.11373972 44.65392089 -0.11891476 48.96063995 -0.12044525 C51.013037 -0.12345898 53.06543333 -0.13144391 55.11779022 -0.14463043 C57.98854493 -0.16177776 60.85870638 -0.15979089 63.72949219 -0.15332031 C64.56503128 -0.1625351 65.40057037 -0.17174988 66.26142883 -0.1812439 C73.23326041 -0.13227713 79.95940873 1.1924133 85.640625 5.453125 C90.89707036 10.95987728 91.7384216 16.61011419 91.94799805 23.91601562 C91.99774418 25.15915401 91.99774418 25.15915401 92.04849529 26.42740631 C92.38023715 35.54905254 92.38663875 44.67064582 92.34765625 53.796875 C92.34307527 55.71903406 92.33884126 57.64119398 92.33491516 59.56335449 C92.3221198 64.93168893 92.30156304 70.29997059 92.27948761 75.66827393 C92.2650606 79.34704186 92.25306859 83.02581143 92.24163818 86.70458984 C92.19387668 101.77665263 92.12587915 116.84843814 92.02989006 131.92027283 C91.98443966 139.10178341 91.9449483 146.283233 91.91918945 153.46484375 C91.89623059 159.86488668 91.86295177 166.26477503 91.81692344 172.66469526 C91.79315124 176.01493521 91.77586558 179.36488756 91.76801109 182.71522522 C91.75843559 186.40479011 91.73048588 190.093779 91.69799805 193.78320312 C91.69943314 194.87272278 91.70086823 195.96224243 91.7023468 197.08477783 C91.63098981 202.78749105 91.51181735 206.95693265 87.265625 211.203125 C85.53890492 211.30374842 83.80804662 211.33389005 82.07839966 211.33683777 C80.95386383 211.34110275 79.829328 211.34536774 78.67071533 211.34976196 C77.42602478 211.34930878 76.18133423 211.34885559 74.89892578 211.34838867 C73.59662018 211.35174728 72.29431458 211.3551059 70.95254517 211.35856628 C67.36986792 211.36742743 63.78721452 211.36974531 60.20452738 211.37038207 C57.21739284 211.37132961 54.23026391 211.37500618 51.24313152 211.37855417 C44.19675278 211.38670708 37.15038682 211.38913767 30.10400391 211.38842773 C22.82802286 211.387827 15.55211596 211.39837601 8.27615368 211.4141714 C2.03664427 211.42723558 -4.20284087 211.43261209 -10.44236386 211.43197232 C-14.17210119 211.43171697 -17.90177268 211.43458874 -21.63149643 211.44515038 C-25.79067828 211.45660565 -29.94969351 211.45209143 -34.10888672 211.44604492 C-35.96984985 211.45447418 -35.96984985 211.45447418 -37.8684082 211.46307373 C-38.99858368 211.45887924 -40.12875916 211.45468475 -41.29318237 211.45036316 C-42.7693292 211.45118031 -42.7693292 211.45118031 -44.27529716 211.45201397 C-46.734375 211.203125 -46.734375 211.203125 -49.734375 209.203125 C-50.17071533 206.63180542 -50.17071533 206.63180542 -50.25488281 203.21435547 C-50.27359688 202.566059 -50.29231094 201.91776253 -50.3115921 201.24982071 C-50.37041194 198.98171052 -50.40464675 196.71394099 -50.4375 194.4453125 C-50.4713266 192.75259304 -50.50520339 191.05987457 -50.53912354 189.36715698 C-51.02973841 161.39136262 -50.74291656 133.39570986 -50.56401396 105.41798615 C-50.55851923 104.55865912 -50.55302451 103.69933209 -50.54736328 102.81396484 C-50.54184716 101.95296669 -50.53633103 101.09196853 -50.53064775 100.20487952 C-50.48665311 93.14473932 -50.45851992 86.08459464 -50.43342948 79.02436554 C-50.40819894 72.13509886 -50.37162534 65.24595144 -50.32634377 58.35678756 C-50.29972739 54.27532569 -50.27763306 50.19396903 -50.26732635 46.11243057 C-50.25736034 42.30167965 -50.23322829 38.49127391 -50.19839287 34.68067169 C-50.18806104 33.29119821 -50.18268396 31.90167696 -50.18282509 30.51216507 C-50.17748976 13.50171591 -50.17748976 13.50171591 -44.83203125 6.828125 C-44.16042969 6.291875 -43.48882812 5.755625 -42.796875 5.203125 C-42.12785156 4.64625 -41.45882813 4.089375 -40.76953125 3.515625 C-30.71054509 -2.97155225 -11.52540927 0.02159729 0 0 Z " fill="#1F8541" transform="translate(483.734375,541.796875)"/>
<path d="M0 0 C1.71116863 -0.00435575 3.42233531 -0.00954176 5.13349915 -0.01548767 C9.74443547 -0.02878463 14.35528939 -0.02946764 18.96624112 -0.02692437 C22.82131125 -0.02585 26.67636502 -0.03074903 30.53143162 -0.03552979 C39.61894882 -0.04658906 48.70642465 -0.04708022 57.79394531 -0.04101562 C67.17021681 -0.03495497 76.54633903 -0.04734784 85.92258507 -0.06858569 C93.98396338 -0.08617394 102.04529402 -0.09220813 110.10669082 -0.08894795 C114.91721828 -0.08713319 119.72763881 -0.08979202 124.53814888 -0.10366249 C129.05184306 -0.11619383 133.56530247 -0.11434162 138.07899284 -0.1012516 C139.73706515 -0.09887737 141.39515378 -0.10165065 143.0532074 -0.10987473 C145.31138751 -0.12027108 147.56876894 -0.11230042 149.82691956 -0.0995636 C151.09170419 -0.09973134 152.35648882 -0.09989908 153.65960026 -0.10007191 C156.71264648 0.2746582 156.71264648 0.2746582 158.58050442 1.67304707 C160.72818257 4.71130998 160.83890894 6.67146808 160.84204102 10.35668945 C160.84519318 11.41960205 160.84834534 12.48251465 160.85159302 13.57763672 C160.84855667 15.31484985 160.84855667 15.31484985 160.84545898 17.0871582 C160.84641571 18.2846167 160.84737244 19.4820752 160.84835815 20.71582031 C160.8490405 23.26473035 160.84718246 25.8136421 160.84301758 28.36254883 C160.83774475 32.2030853 160.84292139 36.04350076 160.84936523 39.8840332 C160.85405639 50.55692452 160.84573916 61.23475 160.39233398 71.8996582 C160.37034943 72.62161377 160.34836487 73.34356934 160.32571411 74.08740234 C160.1872227 76.67577285 160.05673959 78.74266019 158.62832642 80.95111179 C155.67274899 82.99312509 153.11463383 82.65577313 149.55444336 82.66233826 C148.82051833 82.66772379 148.0865933 82.67310933 147.33042812 82.67865807 C144.86391511 82.69299863 142.3979342 82.68581892 139.93139648 82.67871094 C138.16556871 82.68441169 136.39974463 82.6913748 134.63392639 82.69950867 C129.82974682 82.71749725 125.02574935 82.71625988 120.22154617 82.71056628 C116.20861396 82.70747969 112.195717 82.71356166 108.1827898 82.71960503 C98.7081746 82.73367012 89.23364949 82.7320752 79.7590332 82.72070312 C69.99850176 82.70924635 60.23824587 82.7232519 50.47775078 82.7500996 C42.09200548 82.77229875 33.70634639 82.77888371 25.32057381 82.77302319 C20.31512999 82.76965928 15.30986238 82.77202979 10.30444336 82.78927422 C5.58969268 82.80480617 0.87534714 82.80071875 -3.83938789 82.78196907 C-5.56343066 82.77829905 -7.28750384 82.78134503 -9.01151848 82.79185486 C-21.07621326 82.85974441 -31.35390061 81.84300327 -41.28735352 74.2746582 C-42.11235352 73.7177832 -42.93735352 73.1609082 -43.78735352 72.5871582 C-52.53410297 64.49641496 -57.03365431 52.88165218 -57.53735352 41.1496582 C-57.35475787 30.28521732 -53.7398527 20.39676255 -46.50610352 12.2746582 C-33.61263873 0.01529824 -16.73950415 -0.02838703 0 0 Z " fill="#1F8541" transform="translate(248.287353515625,670.725341796875)"/>
<path d="M0 0 C1.07561221 -0.00339833 1.07561221 -0.00339833 2.17295396 -0.00686532 C4.55797684 -0.01315813 6.9429422 -0.01237903 9.32797241 -0.0115509 C11.04500908 -0.01454521 12.76204508 -0.01794837 14.4790802 -0.02172852 C19.12968314 -0.03054177 23.78026767 -0.03290541 28.43087816 -0.0335443 C31.33708289 -0.03425594 34.24328297 -0.03639235 37.14948654 -0.03904152 C47.28955126 -0.04828373 57.42960284 -0.05237752 67.56967163 -0.05158997 C77.02131349 -0.05098839 86.47289842 -0.06155867 95.92452586 -0.07733363 C104.04357663 -0.09040166 112.16260876 -0.09577422 120.28166997 -0.09513456 C125.12920281 -0.0948795 129.97668495 -0.09773561 134.82420731 -0.10831261 C139.37965346 -0.117982 143.93500029 -0.11808075 148.49044991 -0.11079597 C150.16219159 -0.10974892 151.83393943 -0.11212016 153.50567055 -0.11815643 C155.78734491 -0.12586187 158.06867497 -0.12124141 160.3503418 -0.11352539 C161.62715128 -0.11407016 162.90396076 -0.11461493 164.21946144 -0.1151762 C167.47913421 0.12854967 169.69595021 0.55134848 172.54818726 2.13371277 C173.73618262 5.69769886 173.68984923 8.56411783 173.70932007 12.32731628 C173.71428497 13.05605957 173.71924988 13.78480286 173.72436523 14.53562927 C173.73896345 16.94463545 173.74578319 19.35357589 173.75131226 21.76261902 C173.75706347 23.43505862 173.76282121 25.10749819 173.76858521 26.77993774 C173.77908701 30.28450325 173.78493576 33.78904585 173.78842163 37.29362488 C173.79391969 41.79205813 173.81797885 46.29019072 173.84639359 50.7885294 C173.86497764 54.24140319 173.87022318 57.69420374 173.87175751 61.14712334 C173.87479168 62.80618378 173.88284583 64.4652427 173.89594269 66.12425423 C173.9129233 68.43957396 173.91114359 70.75414775 173.90463257 73.06950378 C173.91010101 75.04781944 173.91010101 75.04781944 173.91567993 77.06610107 C173.79440735 78.07841293 173.67313477 79.09072479 173.54818726 80.13371277 C169.81851584 82.62016038 167.91715553 82.38510269 163.45918274 82.38768005 C162.73271925 82.39080003 162.00625576 82.39392002 161.25777823 82.39713454 C158.81665758 82.40512944 156.37578449 82.39878497 153.93466187 82.39250183 C152.18691868 82.3952112 150.43917664 82.39877183 148.69143677 82.40312195 C143.93693403 82.41225938 139.18251786 82.40869488 134.42801356 82.40236378 C129.45053671 82.39730518 124.47306735 82.40199536 119.49559021 82.40513611 C111.12842478 82.40877853 102.7612946 82.4039719 94.39413452 82.39445496 C84.73476888 82.38359475 75.07548783 82.38707714 65.41612428 82.39810777 C57.11872891 82.40720252 48.82135892 82.40845448 40.52396017 82.40323043 C35.57058011 82.40011955 30.61723971 82.3996766 25.66386223 82.40630341 C20.99928233 82.41210718 16.3348106 82.40802473 11.67024231 82.39651489 C9.96351869 82.39388339 8.25678588 82.39460741 6.55006599 82.39904022 C-8.61468429 82.43477604 -21.13727247 81.48069603 -32.82290649 70.85246277 C-41.40890276 61.79289837 -43.99708332 51.85582346 -43.94180298 39.60246277 C-43.47496125 26.69650171 -37.34947128 16.5329392 -28.13931274 7.82121277 C-19.9851137 1.22455736 -10.18261951 0.01335705 0 0 Z " fill="#1F8541" transform="translate(235.45181274414063,565.8662872314453)"/>
<path d="M0 0 C1.06073724 -0.00445668 1.06073724 -0.00445668 2.14290351 -0.0090034 C4.52478014 -0.01771043 6.90660662 -0.01920039 9.28849792 -0.02069092 C10.9918173 -0.02531803 12.69513564 -0.03034254 14.39845276 -0.03573608 C19.03748861 -0.04888067 23.67650996 -0.05531015 28.31556153 -0.05974674 C31.21660892 -0.06267683 34.11765234 -0.06678172 37.01869774 -0.07125092 C46.10257029 -0.08493714 55.18643379 -0.09459579 64.27031595 -0.09845281 C74.74096675 -0.1029232 85.21148633 -0.12041888 95.68209726 -0.1494534 C103.7816395 -0.17112886 111.88114501 -0.18116037 119.98071593 -0.18249393 C124.81407727 -0.18353864 129.64731545 -0.18937391 134.48064613 -0.20731354 C139.03690473 -0.22389362 143.59294898 -0.2259019 148.14922714 -0.21717453 C149.81277099 -0.21640919 151.47632683 -0.22067972 153.13984108 -0.23063278 C167.78363598 -0.31303685 182.32374934 0.8005675 194.00798035 10.66387939 C202.86768313 20.07444453 206.80203345 32.87434618 206.5743866 45.51544189 C205.47449251 56.25967047 199.13768542 67.05678392 190.96891785 74.05450439 C178.42132471 82.83781959 164.8786207 82.29378925 150.16471863 82.31744385 C148.4441413 82.32371777 146.72356529 82.33036537 145.00299072 82.33735657 C139.38487163 82.35826316 133.76675264 82.36873621 128.14860535 82.37872314 C126.2105241 82.38277366 124.27244299 82.38689067 122.33436203 82.39107323 C113.23985785 82.41008373 104.14536165 82.42433166 95.05084145 82.4326852 C84.55465304 82.44248697 74.05867385 82.46889998 63.56255925 82.50918609 C55.4418018 82.53928767 47.32110465 82.55414779 39.20029247 82.55746621 C34.35166087 82.55982055 29.50325392 82.56883314 24.65468216 82.59392738 C20.1024206 82.61711345 15.55053326 82.62147986 10.99822807 82.611166 C9.32563345 82.61066846 7.65302094 82.61705279 5.9804821 82.63072205 C3.70225673 82.64830519 1.42539509 82.64140414 -0.85282898 82.62818909 C-2.76691213 82.63177162 -2.76691213 82.63177162 -4.71966362 82.63542652 C-7.79670715 82.14044189 -7.79670715 82.14044189 -9.70731068 80.31154919 C-11.28422771 77.16884023 -11.17075114 74.55454385 -11.16902161 71.04864502 C-11.17267227 70.34247543 -11.17632294 69.63630585 -11.18008423 68.90873718 C-11.18817595 66.5794758 -11.17459169 64.25091314 -11.1599884 61.92169189 C-11.15946963 60.30031332 -11.159988 58.67893411 -11.16149902 57.05755615 C-11.16140936 53.6614237 -11.15099249 50.26552894 -11.13288879 46.8694458 C-11.11020179 42.51812009 -11.10965817 38.16714159 -11.11640644 33.81577301 C-11.11974931 30.46831176 -11.11311034 27.12092954 -11.10327721 23.77348328 C-11.09943041 22.16912754 -11.09827484 20.564763 -11.09986305 18.96040344 C-11.10023428 16.71751176 -11.08759789 14.47506374 -11.07136536 12.23223877 C-11.06675797 10.95634888 -11.06215057 9.68045898 -11.05740356 8.36590576 C-10.81224866 5.33272909 -10.49828028 3.62754216 -8.79670715 1.14044189 C-5.86503612 -0.32539362 -3.27473073 0.0076595 0 0 Z " fill="#1F8541" transform="translate(610.7967071533203,670.8595581054688)"/>
<path d="M0 0 C0.70055104 -0.00297112 1.40110209 -0.00594224 2.12288195 -0.0090034 C4.47634759 -0.0176924 6.82976238 -0.01919886 9.1832428 -0.02069092 C10.86862802 -0.0253192 12.55401219 -0.03034388 14.23939514 -0.03573608 C18.82458734 -0.04886701 23.40976488 -0.05530718 27.99497294 -0.05974674 C30.86234849 -0.06267827 33.72972005 -0.06678338 36.59709358 -0.07125092 C45.57577526 -0.08493189 54.55444779 -0.09459382 63.53313917 -0.09845281 C73.88266948 -0.10292566 84.2320672 -0.12043505 94.58155721 -0.1494534 C102.58853578 -0.17112023 110.59547721 -0.18115986 118.60248476 -0.18249393 C123.38046748 -0.183539 128.15832566 -0.18938248 132.93627739 -0.20731354 C137.43837572 -0.22387929 141.9402571 -0.22590874 146.44237518 -0.21717453 C148.0869893 -0.2164085 149.73161549 -0.22068898 151.37619972 -0.23063278 C165.18582617 -0.30917269 176.54080993 1.1199562 188.15223694 9.14044189 C189.48254944 10.00669189 189.48254944 10.00669189 190.83973694 10.89044189 C199.3907725 19.21036839 204.48341101 29.13036843 204.65223694 41.07794189 C204.48803126 53.75728316 199.31567971 63.79210694 190.77723694 72.95294189 C179.78803388 83.31830373 164.89035609 82.43868138 150.71888733 82.4151001 C148.97993248 82.41945459 147.24097955 82.42464019 145.50202942 82.43058777 C140.81039121 82.44390054 136.11883392 82.44456577 131.42718053 82.44202447 C127.50515108 82.44095084 123.58313775 82.44584742 119.66111177 82.45062989 C110.41391907 82.4616954 101.16676702 82.46217726 91.91957092 82.45611572 C82.38031444 82.45005921 72.84120483 82.46243612 63.3019734 82.48368579 C55.10132281 82.50128166 46.90071908 82.50730688 38.70005029 82.50404805 C33.80619866 82.50223397 28.91245215 82.50488506 24.01861763 82.51876259 C19.42449901 82.53130575 14.83061092 82.52943034 10.23649597 82.5163517 C8.54981853 82.51397979 6.86312501 82.51674252 5.17646599 82.52497482 C2.87698708 82.53539097 0.57828945 82.52738415 -1.72116089 82.5146637 C-3.65208792 82.51491531 -3.65208792 82.51491531 -5.62202358 82.515172 C-9.05516106 82.11634873 -10.48815765 81.63386494 -12.84776306 79.14044189 C-13.34896851 75.95257568 -13.34896851 75.95257568 -13.34947205 71.96270752 C-13.35757652 70.87200203 -13.35757652 70.87200203 -13.36584473 69.75926208 C-13.37835658 67.35465849 -13.36182602 64.95124656 -13.34385681 62.54669189 C-13.34401174 60.87664731 -13.34549977 59.20660236 -13.3482666 57.53656006 C-13.34965169 54.03603221 -13.33707461 50.53591355 -13.3143158 47.03546143 C-13.28593056 42.54601659 -13.28866689 38.05725181 -13.30140591 33.56775665 C-13.30835738 30.11908143 -13.30057995 26.67056369 -13.28814888 23.22190857 C-13.28362918 21.56648868 -13.2833021 19.91105193 -13.28721428 18.25563049 C-13.29012137 15.94279262 -13.27364493 13.63089535 -13.2518158 11.31817627 C-13.24641281 10.00151978 -13.24100983 8.68486328 -13.23544312 7.32830811 C-12.84776306 4.14044189 -12.84776306 4.14044189 -11.51000977 2.2543335 C-7.81001811 -0.22507562 -4.3155649 0.01020936 0 0 Z " fill="#1F8541" transform="translate(612.8477630615234,565.8595581054688)"/>
<path d="M0 0 C3.80385838 2.84733259 7.40400122 5.89613656 11 9 C12.61108519 10.36827092 14.22550419 11.7325398 15.84008789 13.09667969 C16.94976168 14.03481837 18.05831829 14.97428005 19.16577148 15.91503906 C22.55854046 18.79545526 25.98237286 21.6317947 29.4375 24.4375 C39.726682 32.82737079 49.81899833 41.4664104 59.47949219 50.57617188 C60.5405206 51.56973605 61.60955806 52.55478618 62.68457031 53.53320312 C64.39042799 55.0878357 66.07163076 56.66578682 67.75 58.25 C68.27609863 58.72115234 68.80219727 59.19230469 69.34423828 59.67773438 C72.24201846 62.47129187 72.9814497 63.78181313 73.328125 67.859375 C73.16570312 69.41398437 73.16570312 69.41398437 73 71 C69.14089303 73.56760604 65.11526825 73.28191437 60.65614319 73.26069641 C59.38224005 73.26643473 59.38224005 73.26643473 58.08260149 73.27228898 C55.23216971 73.28262132 52.38193927 73.27862638 49.53149414 73.2746582 C47.4897798 73.27900454 45.44806709 73.28418742 43.40635681 73.29014587 C37.85682984 73.30355532 32.30737088 73.30411239 26.75783086 73.30158257 C22.12792931 73.30051422 17.49804161 73.30539274 12.86814302 73.310188 C1.94732249 73.32128983 -8.97346366 73.32171673 -19.89428711 73.31567383 C-31.16758666 73.3096319 -42.44076147 73.32194911 -53.71403974 73.3432439 C-63.38716267 73.36084546 -73.06024584 73.36686355 -82.73338419 73.36360615 C-88.51324355 73.36179091 -94.29301392 73.36445359 -100.07285881 73.37832069 C-105.50735014 73.39087094 -110.94164663 73.38898148 -116.37613487 73.37590981 C-118.37199722 73.37353839 -120.36787317 73.37629885 -122.36371994 73.38453293 C-125.08576093 73.39495424 -127.80714259 73.38693693 -130.52915955 73.3742218 C-131.32118411 73.38159609 -132.11320866 73.38897037 -132.92923397 73.39656812 C-137.46768451 73.35188917 -140.34524004 72.73862511 -144 70 C-142.97958794 59.15223491 -131.79050152 51.7197173 -124 45 C-123.47776855 44.54898926 -122.95553711 44.09797852 -122.41748047 43.63330078 C-118.89486772 40.59436551 -115.35900716 37.57119613 -111.81884766 34.55273438 C-109.43859292 32.52073168 -107.06448645 30.4816198 -104.69042969 28.44238281 C-102.36340636 26.44464301 -100.03334952 24.45046459 -97.70263672 22.45703125 C-96.58374887 21.49954306 -95.46556287 20.54123399 -94.34814453 19.58203125 C-91.13332899 16.82399184 -87.90245124 14.08700181 -84.64746094 11.37646484 C-83.53186398 10.44437598 -82.42064411 9.50702751 -81.31347656 8.56494141 C-57.74080335 -11.42409381 -27.15233721 -17.78398694 0 0 Z " fill="#1F8541" transform="translate(540,259)"/>
</svg>
